# xmcd CD database file
#
# Track frame offsets:
#	150
#	21262
#	48902
#	68362
#	83435
#	96635
#	116220
#	131832
#	152722
#	167830
#	186317
#	204362
#	228190
#	247362
#
# Disc length: 3485 seconds
#
# Revision: 1
# Processed by: cddbd v1.4PL0 Copyright (c) Steve Scherf et al.
# Submitted via: CDex 1.50Beta7
#
DISCID=bf0d9b0e
DTITLE=Luqman Hamza - With this voice
DYEAR=1900
DGENRE=Jazz
TTITLE0=Born to be blue
TTITLE1=Feeling good
TTITLE2=My one and only love
TTITLE3=Never let me go
TTITLE4=Weaver of dreams
TTITLE5=Until the real thing comes along
TTITLE6=Blue moon
TTITLE7=My funny Valentine
TTITLE8=Don't get around much anymore
TTITLE9=Laura
TTITLE10=Waht does it take
TTITLE11=Just one of those thing
TTITLE12=With these hands
TTITLE13=Smoke gets in your eyes
EXTD=
EXTT0=
EXTT1=
EXTT2=
EXTT3=
EXTT4=
EXTT5=
EXTT6=
EXTT7=
EXTT8=
EXTT9=
EXTT10=
EXTT11=
EXTT12=
EXTT13=
PLAYORDER=
